# xmcd
#
# Track frame offsets: 
#        182
#        17725
#        35010
#
# Disc length: 799 seconds
#
# Revision: 0
# Processed by: cddbd v1.5.2PL0 Copyright (c) Steve Scherf et al.
# Submitted via: ExactAudioCopy v0.99pb5
#
DISCID=1d031d03
DTITLE=Reba McEntire - Forever Love (Maxi)
DYEAR=1998
DGENRE=Country
TTITLE0=Forever Love
TTITLE1=And Still
TTITLE2=Fallin' Out Of Love
EXTD=
EXTT0=
EXTT1=
EXTT2=
PLAYORDER=
